<svg width="360" height="147" viewBox="0 0 360 147" fill="none" xmlns="http://www.w3.org/2000/svg">
<rect width="360" height="52" fill="#FCDC36"/>
<path fill-rule="evenodd" clip-rule="evenodd" d="M329.575 23.44C329.575 26.3229 327.238 28.66 324.355 28.66C321.472 28.66 319.135 26.3229 319.135 23.44C319.135 20.5571 321.472 18.22 324.355 18.22C327.238 18.22 329.575 20.5571 329.575 23.44Z" fill="#41197F"/>
<path d="M324.355 12.75C316.289 12.75 309.75 19.2889 309.75 27.355C309.75 35.4211 316.289 41.96 324.355 41.96C332.421 41.96 338.96 35.4211 338.96 27.355C338.96 19.2889 332.421 12.75 324.355 12.75ZM324.439 29.715C320.667 29.715 317.302 31.4564 315.103 34.1782C313.693 32.2698 312.86 29.91 312.86 27.355C312.86 21.0065 318.006 15.86 324.355 15.86C330.704 15.86 335.85 21.0065 335.85 27.355C335.85 29.8618 335.048 32.1805 333.686 34.0694C331.487 31.4101 328.161 29.715 324.439 29.715Z" fill="#41197F" stroke="#41197F" stroke-width="0.5"/>
<path d="M153.352 127.25H160.142V142H156.312V129.4L156.382 129.44L154.092 142H148.952L146.592 129.41L146.662 129.37V142H142.822V127.25H149.612L151.672 140.46H151.262L153.352 127.25ZM166.789 130.25L168.609 128.43V134.18L167.709 133.1H173.009V136.1H167.709L168.609 135.03V140.82L166.789 139H174.119V142H164.549V127.25H174.119V130.25H166.789ZM177.511 142L180.941 127.25H187.351L190.761 142H186.631L184.141 129.66H184.161L181.641 142H177.511ZM180.511 138.9V135.87H187.791V138.9H180.511ZM194.354 142V127.25H198.394V140.81L196.574 138.79H203.654V142H194.354ZM212.859 142.26C211.766 142.26 210.786 142.087 209.919 141.74C209.052 141.387 208.366 140.863 207.859 140.17C207.359 139.477 207.109 138.617 207.109 137.59C207.109 137.503 207.109 137.417 207.109 137.33C207.109 137.243 207.109 137.157 207.109 137.07H211.139C211.139 137.143 211.139 137.217 211.139 137.29C211.139 137.363 211.139 137.437 211.139 137.51C211.139 137.977 211.282 138.367 211.569 138.68C211.862 138.993 212.306 139.15 212.899 139.15C213.472 139.15 213.922 139.067 214.249 138.9C214.582 138.727 214.749 138.447 214.749 138.06C214.749 137.773 214.592 137.507 214.279 137.26C213.972 137.013 213.556 136.78 213.029 136.56C212.509 136.34 211.929 136.13 211.289 135.93C210.596 135.71 209.936 135.413 209.309 135.04C208.689 134.667 208.182 134.183 207.789 133.59C207.396 132.99 207.199 132.247 207.199 131.36C207.199 130.447 207.452 129.667 207.959 129.02C208.466 128.367 209.146 127.867 209.999 127.52C210.859 127.173 211.812 127 212.859 127C213.946 127 214.916 127.17 215.769 127.51C216.629 127.85 217.309 128.35 217.809 129.01C218.309 129.67 218.559 130.487 218.559 131.46C218.559 131.547 218.559 131.63 218.559 131.71C218.559 131.79 218.559 131.873 218.559 131.96H214.529C214.529 131.927 214.529 131.877 214.529 131.81C214.529 131.737 214.529 131.683 214.529 131.65C214.529 131.217 214.406 130.85 214.159 130.55C213.919 130.25 213.502 130.1 212.909 130.1C212.322 130.1 211.869 130.207 211.549 130.42C211.236 130.633 211.079 130.943 211.079 131.35C211.079 131.637 211.212 131.89 211.479 132.11C211.746 132.323 212.112 132.523 212.579 132.71C213.052 132.897 213.586 133.097 214.179 133.31C215.072 133.623 215.856 133.97 216.529 134.35C217.202 134.723 217.726 135.193 218.099 135.76C218.479 136.327 218.669 137.053 218.669 137.94C218.669 138.867 218.419 139.653 217.919 140.3C217.419 140.94 216.729 141.427 215.849 141.76C214.976 142.093 213.979 142.26 212.859 142.26Z" fill="#41197F"/>
<path d="M200.334 89.9039C200.334 86.0451 197.009 82.0079 197.009 83.2187C197.009 84.4296 197.624 100.511 197.624 100.511L197.009 111.027C197.009 111.744 197.591 112.326 198.308 112.326C199.025 112.326 199.607 111.744 199.607 111.027L199.263 100.45C199.263 100.45 200.334 93.7627 200.334 89.9039Z" stroke="#FCC436" stroke-width="0.820339" stroke-miterlimit="10"/>
<mask id="path-6-inside-1_23_2595" fill="white">
<path d="M200.334 89.9039C200.334 86.0451 197.009 82.0079 197.009 83.2187C197.009 84.4296 197.624 100.511 197.624 100.511L197.009 111.027C197.009 111.744 197.591 112.326 198.308 112.326C199.025 112.326 199.607 111.744 199.607 111.027L199.263 100.45C199.263 100.45 200.334 93.7627 200.334 89.9039Z"/>
</mask>
<path d="M197.624 100.511L201.719 100.75L201.731 100.552L201.723 100.354L197.624 100.511ZM197.009 111.027L192.915 110.787L192.908 110.907V111.027H197.009ZM199.607 111.027H203.708V110.96L203.706 110.894L199.607 111.027ZM199.263 100.45L195.213 99.8019L195.151 100.19L195.164 100.584L199.263 100.45ZM204.436 89.9039C204.436 86.9278 203.21 84.1961 202.158 82.4985C201.64 81.6637 200.967 80.7582 200.206 80.1022C200 79.9248 199.7 79.6886 199.318 79.4753C199.002 79.2985 198.257 78.9222 197.245 78.8994C195.961 78.8705 194.538 79.4396 193.649 80.7539C192.957 81.778 192.908 82.8011 192.908 83.2187H201.111C201.111 83.4849 201.088 84.3977 200.444 85.3498C199.604 86.5921 198.253 87.1276 197.06 87.1007C196.138 87.0799 195.504 86.7414 195.314 86.6354C195.06 86.4929 194.902 86.3606 194.852 86.3174C194.714 86.1984 194.872 86.3163 195.186 86.8218C195.795 87.8048 196.232 89.0211 196.232 89.9039H204.436ZM192.908 83.2187C192.908 83.924 193.067 88.3726 193.218 92.4699C193.295 94.5574 193.372 96.6067 193.429 98.134C193.458 98.8977 193.482 99.531 193.499 99.9734C193.508 100.195 193.514 100.368 193.519 100.486C193.521 100.545 193.523 100.591 193.524 100.621C193.524 100.636 193.525 100.648 193.525 100.656C193.525 100.66 193.525 100.663 193.526 100.665C193.526 100.666 193.526 100.666 193.526 100.667C193.526 100.667 193.526 100.667 193.526 100.667C193.526 100.668 193.526 100.668 197.624 100.511C201.723 100.354 201.723 100.354 201.723 100.354C201.723 100.354 201.723 100.354 201.723 100.353C201.723 100.353 201.723 100.352 201.723 100.351C201.723 100.349 201.723 100.346 201.723 100.343C201.722 100.335 201.722 100.323 201.721 100.308C201.72 100.278 201.718 100.233 201.716 100.174C201.712 100.056 201.705 99.8825 201.697 99.6616C201.68 99.2198 201.656 98.5873 201.627 97.8244C201.569 96.2986 201.493 94.252 201.416 92.1678C201.339 90.083 201.262 87.9633 201.205 86.2906C201.176 85.4537 201.152 84.7327 201.136 84.1853C201.127 83.9113 201.121 83.6853 201.117 83.5122C201.115 83.4257 201.113 83.3561 201.112 83.3025C201.112 83.2758 201.111 83.2552 201.111 83.2397C201.111 83.2236 201.111 83.2174 201.111 83.2187H192.908ZM193.53 100.271L192.915 110.787L201.104 111.266L201.719 100.75L193.53 100.271ZM192.908 111.027C192.908 114.009 195.325 116.427 198.308 116.427V108.224C199.856 108.224 201.111 109.479 201.111 111.027H192.908ZM198.308 116.427C201.29 116.427 203.708 114.009 203.708 111.027H195.505C195.505 109.479 196.76 108.224 198.308 108.224V116.427ZM203.706 110.894L203.363 100.317L195.164 100.584L195.507 111.16L203.706 110.894ZM199.263 100.45C203.313 101.099 203.313 101.099 203.313 101.099C203.313 101.098 203.313 101.098 203.313 101.098C203.313 101.098 203.314 101.097 203.314 101.096C203.314 101.095 203.314 101.093 203.314 101.091C203.315 101.087 203.316 101.081 203.317 101.074C203.32 101.059 203.323 101.038 203.327 101.011C203.336 100.957 203.348 100.879 203.363 100.779C203.394 100.579 203.437 100.293 203.489 99.9381C203.593 99.2294 203.731 98.2429 203.869 97.13C204.138 94.9623 204.436 92.1077 204.436 89.9039H196.232C196.232 91.5588 195.994 93.9776 195.728 96.1184C195.599 97.1598 195.469 98.0865 195.372 98.7523C195.323 99.0847 195.283 99.3508 195.255 99.5321C195.241 99.6227 195.23 99.6921 195.223 99.7378C195.22 99.7607 195.217 99.7777 195.215 99.7885C195.214 99.7939 195.214 99.7977 195.213 99.8C195.213 99.8011 195.213 99.8018 195.213 99.8022C195.213 99.8023 195.213 99.8024 195.213 99.8024C195.213 99.8023 195.213 99.8022 195.213 99.8022C195.213 99.8021 195.213 99.8019 199.263 100.45Z" fill="#FCC436" mask="url(#path-6-inside-1_23_2595)"/>
<path d="M164.818 83.6991C164.818 83.6991 164.891 86.3988 164.891 88.9621C164.891 90.8846 164.307 92.0919 163.475 92.5754L163.493 111.027C163.493 111.744 162.912 112.326 162.195 112.326C161.478 112.326 160.896 111.744 160.896 111.027L161.423 92.5792C160.587 92.0982 160 90.8896 160 88.9621C160 86.3988 160.072 83.6991 160.072 83.6991" stroke="#FCC436" stroke-width="1.29858" stroke-miterlimit="10" stroke-linecap="round" stroke-linejoin="round"/>
<path d="M162.445 83.6991V89.9225" stroke="#FCC436" stroke-width="1.29858" stroke-miterlimit="10" stroke-linecap="round" stroke-linejoin="round"/>
<path d="M180.777 110.558C187.934 110.558 193.736 104.756 193.736 97.5994C193.736 90.4425 187.934 84.6407 180.777 84.6407C173.62 84.6407 167.818 90.4425 167.818 97.5994C167.818 104.756 173.62 110.558 180.777 110.558Z" stroke="#FCC436" stroke-width="2.46102" stroke-miterlimit="10" stroke-linecap="round" stroke-linejoin="round"/>
<path d="M180.78 105.515C185.137 105.515 188.668 101.983 188.668 97.6265C188.668 93.2697 185.137 89.7379 180.78 89.7379C176.423 89.7379 172.891 93.2697 172.891 97.6265C172.891 101.983 176.423 105.515 180.78 105.515Z" fill="#FCC436"/>
<path d="M160 89.5627H164.922L164.102 92.8441L163.725 110.926C163.706 111.818 162.978 112.532 162.085 112.532C161.166 112.532 160.426 111.777 160.445 110.858L160.82 92.8441L160 89.5627Z" fill="#FCC436"/>
<path d="M293.481 37.2134L288.253 31.9855C288.017 31.7496 287.697 31.6185 287.361 31.6185H286.507C287.954 29.7675 288.814 27.4393 288.814 24.9067C288.814 18.8818 283.932 14 277.907 14C271.882 14 267 18.8818 267 24.9067C267 30.9316 271.882 35.8134 277.907 35.8134C280.44 35.8134 282.768 34.9534 284.619 33.5062V34.3609C284.619 34.6965 284.75 35.0163 284.986 35.2523L290.214 40.4802C290.707 40.9731 291.504 40.9731 291.991 40.4802L293.475 38.9962C293.968 38.5033 293.968 37.7063 293.481 37.2134ZM277.907 31.6185C274.2 31.6185 271.195 28.6192 271.195 24.9067C271.195 21.1995 274.195 18.1949 277.907 18.1949C281.614 18.1949 284.619 21.1942 284.619 24.9067C284.619 28.6139 281.62 31.6185 277.907 31.6185Z" fill="#41197F"/>
<path d="M89.3672 34L92.1472 20.9414H96.5561C97.6126 20.9414 98.3976 21.1775 98.9111 21.6497C99.4246 22.116 99.6813 22.7386 99.6813 23.5177C99.6813 23.984 99.6075 24.4562 99.46 24.9343C99.3124 25.4123 99.1029 25.855 98.8314 26.2622C98.5599 26.6695 98.2353 27.0059 97.8575 27.2715C97.4857 27.5371 97.0755 27.6935 96.6269 27.7407C96.8984 27.7643 97.1493 27.8322 97.3794 27.9444C97.6155 28.0506 97.8044 28.2188 97.9461 28.449C98.0936 28.6733 98.1674 28.9713 98.1674 29.3432C98.1674 29.5025 98.1408 29.7239 98.0877 30.0072C98.0346 30.2905 97.9697 30.6062 97.8929 30.9545C97.8162 31.2968 97.7395 31.6421 97.6628 31.9903C97.586 32.3326 97.5211 32.6484 97.468 32.9376C97.4149 33.2268 97.3883 33.454 97.3883 33.6193C97.3883 33.7078 97.3913 33.7875 97.3972 33.8583C97.409 33.9233 97.4237 33.9705 97.4414 34H95.9187C95.8891 33.9233 95.8744 33.8052 95.8744 33.6459C95.8744 33.4924 95.898 33.2829 95.9452 33.0173C95.9983 32.7458 96.0603 32.4536 96.1311 32.1408C96.2079 31.8221 96.2816 31.5063 96.3525 31.1935C96.4233 30.8748 96.4823 30.5826 96.5295 30.317C96.5827 30.0514 96.6092 29.8449 96.6092 29.6973C96.6092 29.2487 96.4499 28.9241 96.1311 28.7234C95.8124 28.5228 95.3727 28.4224 94.812 28.4224H91.3681L92.1472 27.9001L90.8457 34H89.3672ZM92.2091 27.5991L91.616 27.0944H95.1042C95.659 27.0944 96.1606 26.9528 96.6092 26.6695C97.0578 26.3862 97.4149 26.0114 97.6805 25.5451C97.9461 25.0789 98.0789 24.5683 98.0789 24.0135C98.0789 23.4705 97.9224 23.0456 97.6096 22.7386C97.2968 22.4258 96.7892 22.2694 96.0869 22.2694H92.6961L93.5194 21.4195L92.2091 27.5991Z" fill="#41197F"/>
<path d="M104.378 22.2694L105.236 21.4107L103.988 27.3069L103.722 26.7846H108.733L108.459 28.1126H103.448L103.926 27.5902L102.669 33.5308L102.164 32.672H108.468L108.184 34H101.049L103.829 20.9414H110.964L110.681 22.2694H104.378Z" fill="#41197F"/>
<path d="M121.35 29.4583C121.238 29.9836 121.031 30.5236 120.73 31.0784C120.435 31.6273 120.045 32.1379 119.561 32.61C119.083 33.0763 118.523 33.454 117.879 33.7432C117.236 34.0325 116.513 34.1771 115.71 34.1771C114.783 34.1771 114.022 33.9734 113.426 33.5662C112.836 33.1589 112.399 32.6012 112.116 31.8929C111.838 31.1788 111.7 30.3672 111.7 29.4583C111.7 28.3546 111.85 27.2863 112.151 26.2534C112.458 25.2205 112.898 24.2939 113.47 23.4735C114.049 22.6472 114.745 21.992 115.56 21.508C116.38 21.0241 117.304 20.7821 118.331 20.7821C119.287 20.7821 120.054 20.9768 120.633 21.3664C121.217 21.75 121.639 22.2399 121.899 22.836C122.158 23.4321 122.288 24.046 122.288 24.6775C122.288 24.8369 122.279 24.9844 122.262 25.1202C122.244 25.2559 122.22 25.3769 122.191 25.4832H120.677C120.695 25.3946 120.712 25.2766 120.73 25.129C120.754 24.9756 120.765 24.8339 120.765 24.7041C120.765 24.2319 120.671 23.804 120.482 23.4203C120.299 23.0367 120.016 22.7298 119.632 22.4996C119.248 22.2694 118.759 22.1543 118.162 22.1543C117.366 22.1543 116.66 22.3668 116.047 22.7918C115.433 23.2167 114.916 23.7833 114.497 24.4916C114.078 25.1999 113.762 25.9878 113.55 26.8554C113.337 27.7171 113.231 28.5877 113.231 29.4671C113.231 30.5531 113.447 31.3824 113.877 31.9549C114.308 32.5274 114.969 32.8137 115.861 32.8137C116.386 32.8137 116.87 32.7192 117.313 32.5303C117.761 32.3356 118.157 32.0759 118.499 31.7513C118.847 31.4266 119.133 31.0666 119.358 30.6712C119.588 30.2698 119.747 29.8655 119.836 29.4583H121.35Z" fill="#41197F"/>
<path d="M123.565 34L126.336 20.9414H127.832L125.07 34H123.565Z" fill="#41197F"/>
<path d="M130.31 34H128.796L131.576 20.9414H135.153C136.044 20.9414 136.764 21.0949 137.313 21.4018C137.862 21.7087 138.263 22.1219 138.517 22.6413C138.777 23.1547 138.906 23.7273 138.906 24.3588C138.906 25.1379 138.777 25.8402 138.517 26.4659C138.257 27.0856 137.888 27.6197 137.41 28.0683C136.932 28.511 136.363 28.8503 135.702 29.0864C135.046 29.3225 134.321 29.4406 133.524 29.4406H131.284L130.31 34ZM131.399 28.8828L130.885 28.1126H133.533C134.318 28.1126 134.999 27.9562 135.578 27.6433C136.156 27.3305 136.605 26.8938 136.923 26.3331C137.242 25.7724 137.401 25.1172 137.401 24.3676C137.401 23.9191 137.31 23.5413 137.127 23.2344C136.95 22.9216 136.667 22.6826 136.277 22.5173C135.893 22.3521 135.392 22.2694 134.772 22.2694H132.125L132.984 21.4107L131.399 28.8828Z" fill="#41197F"/>
<path d="M143.461 22.2694L144.319 21.4107L143.071 27.3069L142.805 26.7846H147.816L147.542 28.1126H142.531L143.009 27.5902L141.752 33.5308L141.247 32.672H147.551L147.267 34H140.132L142.912 20.9414H150.047L149.764 22.2694H143.461Z" fill="#41197F"/>
<path d="M154.73 34.1771C153.98 34.1771 153.328 34.0708 152.773 33.8583C152.218 33.64 151.79 33.3212 151.489 32.9022C151.188 32.4772 151.038 31.9519 151.038 31.3263C151.038 31.0371 151.059 30.7715 151.1 30.5295C151.147 30.2875 151.209 30.0072 151.286 29.6885H152.791C152.714 29.9954 152.658 30.2551 152.623 30.4675C152.593 30.68 152.578 30.8895 152.578 31.0961C152.578 31.7218 152.773 32.1644 153.163 32.4241C153.558 32.6838 154.131 32.8137 154.88 32.8137C155.518 32.8137 156.087 32.7281 156.589 32.5569C157.091 32.3798 157.486 32.1113 157.775 31.7513C158.064 31.3853 158.209 30.9161 158.209 30.3436C158.209 29.7829 157.979 29.3225 157.519 28.9625C157.064 28.6025 156.444 28.2955 155.659 28.0417C155.063 27.8411 154.526 27.5932 154.048 27.2981C153.576 26.9971 153.201 26.6341 152.924 26.2091C152.652 25.7842 152.516 25.2913 152.516 24.7306C152.516 24.0991 152.637 23.5384 152.879 23.0485C153.127 22.5586 153.47 22.1455 153.906 21.8091C154.343 21.4726 154.851 21.2188 155.429 21.0477C156.008 20.8706 156.633 20.7821 157.306 20.7821C158.056 20.7821 158.705 20.8883 159.254 21.1008C159.809 21.3074 160.236 21.6143 160.537 22.0215C160.839 22.4288 160.989 22.9334 160.989 23.5354C160.989 23.7951 160.968 24.0548 160.927 24.3145C160.886 24.5742 160.833 24.8457 160.768 25.129H159.254C159.319 24.8575 159.366 24.6155 159.395 24.4031C159.431 24.1847 159.449 23.9692 159.449 23.7568C159.449 23.1547 159.251 22.7357 158.855 22.4996C158.46 22.2635 157.89 22.1455 157.147 22.1455C156.545 22.1455 156.008 22.2252 155.535 22.3845C155.063 22.5439 154.691 22.7947 154.42 23.137C154.148 23.4735 154.013 23.9132 154.013 24.4562C154.013 25.0759 154.255 25.5628 154.739 25.917C155.223 26.2652 155.869 26.581 156.677 26.8643C157.309 27.0826 157.852 27.3394 158.306 27.6345C158.761 27.9296 159.109 28.2778 159.351 28.6792C159.599 29.0805 159.723 29.5498 159.723 30.0868C159.723 30.9545 159.502 31.6952 159.059 32.309C158.622 32.9169 158.026 33.3803 157.271 33.699C156.521 34.0177 155.674 34.1771 154.73 34.1771Z" fill="#41197F"/>
<path d="M169.012 34.1976C168.353 34.1976 167.766 34.0945 167.251 33.8883C166.735 33.6764 166.329 33.37 166.031 32.9691C165.733 32.5682 165.584 32.0814 165.584 31.5086C165.584 30.85 165.77 30.3174 166.143 29.9107C166.515 29.4984 166.999 29.1862 167.595 28.9743C168.19 28.7567 168.82 28.6164 169.485 28.5534C170.447 28.4617 171.102 28.3815 171.452 28.3128C171.807 28.2384 171.984 28.1124 171.984 27.9348C171.984 27.9291 171.984 27.9262 171.984 27.9262C171.984 27.9205 171.984 27.9176 171.984 27.9176C171.984 27.6427 171.838 27.4194 171.546 27.2475C171.26 27.0757 170.865 26.9898 170.361 26.9898C169.828 26.9898 169.424 27.0872 169.149 27.2819C168.88 27.4709 168.746 27.7601 168.746 28.1496H165.722C165.722 27.3993 165.928 26.7693 166.34 26.2596C166.758 25.7441 167.32 25.3547 168.024 25.0912C168.729 24.8278 169.516 24.696 170.387 24.696C171.211 24.696 171.976 24.8192 172.68 25.0655C173.391 25.3117 173.963 25.6869 174.399 26.1909C174.84 26.6949 175.06 27.3363 175.06 28.1152C175.06 28.2355 175.06 28.3558 175.06 28.476C175.06 28.5963 175.06 28.7166 175.06 28.8369V31.8609C175.06 32.1014 175.066 32.3362 175.077 32.5653C175.089 32.7887 175.12 32.9949 175.172 33.1839C175.235 33.39 175.312 33.5647 175.404 33.7079C175.501 33.8511 175.578 33.9485 175.636 34H172.637C172.592 33.9542 172.523 33.8654 172.431 33.7337C172.345 33.602 172.271 33.4502 172.208 33.2784C172.133 33.0493 172.079 32.8288 172.045 32.6169C172.01 32.3992 171.993 32.1415 171.993 31.8437L172.646 32.2904C172.486 32.6856 172.222 33.0264 171.856 33.3127C171.495 33.5991 171.068 33.8196 170.576 33.9742C170.083 34.1231 169.562 34.1976 169.012 34.1976ZM169.888 31.9725C170.243 31.9725 170.584 31.901 170.911 31.7578C171.237 31.6146 171.506 31.3855 171.718 31.0705C171.93 30.7555 172.036 30.3345 172.036 29.8076V29.1805L172.809 29.8678C172.431 29.9995 172.002 30.1112 171.521 30.2028C171.039 30.2887 170.57 30.3546 170.112 30.4004C169.625 30.452 169.261 30.535 169.021 30.6495C168.78 30.7641 168.66 30.9531 168.66 31.2165C168.66 31.4685 168.763 31.6575 168.969 31.7835C169.181 31.9095 169.487 31.9725 169.888 31.9725Z" fill="#41197F"/>
<path d="M176.843 37.7542V24.8765H179.91V37.7542H176.843ZM182.668 34.2148C181.946 34.2148 181.285 34.0172 180.683 33.622C180.088 33.2211 179.612 32.6856 179.257 32.0155C178.902 31.3397 178.725 30.5865 178.725 29.7561C178.725 29.7332 178.725 29.7103 178.725 29.6874C178.725 29.6587 178.725 29.6301 178.725 29.6015L179.91 29.5757C179.91 29.5929 179.91 29.6129 179.91 29.6358C179.91 29.653 179.91 29.6673 179.91 29.6788C179.91 30.0797 180.002 30.4262 180.185 30.7183C180.374 31.0046 180.615 31.2251 180.907 31.3798C181.205 31.5287 181.511 31.6031 181.826 31.6031C182.336 31.6031 182.788 31.4256 183.183 31.0705C183.579 30.7154 183.776 30.1541 183.776 29.3867C183.776 28.6192 183.579 28.0665 183.183 27.7286C182.794 27.385 182.341 27.2132 181.826 27.2132C181.517 27.2132 181.213 27.2876 180.915 27.4365C180.623 27.5797 180.383 27.7916 180.194 28.0723C180.005 28.3472 179.91 28.688 179.91 29.0946L178.725 29.0173C178.725 28.1811 178.902 27.4394 179.257 26.7922C179.612 26.145 180.088 25.6353 180.683 25.263C181.285 24.885 181.946 24.696 182.668 24.696C183.407 24.696 184.1 24.8765 184.747 25.2373C185.4 25.5981 185.927 26.1279 186.328 26.8266C186.734 27.5253 186.938 28.3787 186.938 29.3867C186.938 30.4462 186.74 31.334 186.345 32.0499C185.95 32.7658 185.428 33.307 184.781 33.6735C184.134 34.0344 183.43 34.2148 182.668 34.2148Z" fill="#41197F"/>
<path d="M188.404 37.7542V24.8765H191.471V37.7542H188.404ZM194.229 34.2148C193.507 34.2148 192.846 34.0172 192.244 33.622C191.649 33.2211 191.173 32.6856 190.818 32.0155C190.463 31.3397 190.286 30.5865 190.286 29.7561C190.286 29.7332 190.286 29.7103 190.286 29.6874C190.286 29.6587 190.286 29.6301 190.286 29.6015L191.471 29.5757C191.471 29.5929 191.471 29.6129 191.471 29.6358C191.471 29.653 191.471 29.6673 191.471 29.6788C191.471 30.0797 191.563 30.4262 191.746 30.7183C191.935 31.0046 192.176 31.2251 192.468 31.3798C192.765 31.5287 193.072 31.6031 193.387 31.6031C193.897 31.6031 194.349 31.4256 194.744 31.0705C195.139 30.7154 195.337 30.1541 195.337 29.3867C195.337 28.6192 195.139 28.0665 194.744 27.7286C194.355 27.385 193.902 27.2132 193.387 27.2132C193.078 27.2132 192.774 27.2876 192.476 27.4365C192.184 27.5797 191.944 27.7916 191.755 28.0723C191.566 28.3472 191.471 28.688 191.471 29.0946L190.286 29.0173C190.286 28.1811 190.463 27.4394 190.818 26.7922C191.173 26.145 191.649 25.6353 192.244 25.263C192.846 24.885 193.507 24.696 194.229 24.696C194.968 24.696 195.661 24.8765 196.308 25.2373C196.961 25.5981 197.488 26.1279 197.888 26.8266C198.295 27.5253 198.498 28.3787 198.498 29.3867C198.498 30.4462 198.301 31.334 197.906 32.0499C197.51 32.7658 196.989 33.307 196.342 33.6735C195.695 34.0344 194.99 34.2148 194.229 34.2148Z" fill="#41197F"/>
</svg>
